<?xml version="1.0" standalone="no"?>
<!DOCTYPE svg PUBLIC "-//W3C//DTD SVG 20010904//EN"
 "http://www.w3.org/TR/2001/REC-SVG-20010904/DTD/svg10.dtd">
<svg version="1.0" xmlns="http://www.w3.org/2000/svg"
 width="700.000000pt" height="700.000000pt" viewBox="0 0 700.000000 700.000000"
 preserveAspectRatio="xMidYMid meet">
<metadata>
Created by potrace 1.11, written by Peter Selinger 2001-2013
</metadata>
<g transform="translate(0.000000,700.000000) scale(0.100000,-0.100000)"
fill="#000000" stroke="none">
<path d="M3577 6934 c-1 -1 -58 -4 -127 -8 -69 -3 -136 -8 -150 -10 -14 -2
-50 -7 -80 -11 -95 -12 -110 -14 -199 -30 -77 -14 -228 -47 -273 -60 -10 -3
-26 -7 -35 -9 -10 -3 -61 -18 -113 -34 -719 -226 -1335 -675 -1767 -1287 -146
-208 -282 -458 -374 -690 -58 -146 -132 -378 -145 -455 -3 -14 -7 -33 -10 -42
-7 -24 -12 -50 -34 -168 -43 -236 -54 -372 -54 -640 0 -206 8 -357 25 -474 9
-66 12 -86 25 -171 3 -16 11 -59 19 -95 8 -36 16 -78 19 -95 3 -16 13 -55 21
-85 9 -30 18 -64 20 -75 3 -11 20 -67 39 -125 190 -585 528 -1096 976 -1473
47 -40 87 -74 90 -78 18 -20 264 -188 354 -242 94 -55 120 -70 237 -128 299
-149 711 -278 1034 -324 23 -3 50 -7 60 -9 11 -2 49 -7 85 -11 36 -3 76 -8 90
-10 50 -8 278 -17 400 -16 174 2 296 9 425 26 17 2 53 7 80 10 28 3 84 12 125
20 41 8 91 17 110 20 30 5 58 12 130 29 8 2 53 13 100 24 47 11 105 27 130 35
25 8 79 24 120 37 70 21 270 91 315 110 11 5 65 28 120 51 460 192 923 483
1259 791 l69 64 -55 114 c-75 154 -93 196 -139 325 -34 94 -82 244 -94 295
-23 97 -45 205 -50 245 -4 28 -10 66 -15 85 -4 19 -11 71 -15 115 -4 44 -9 94
-11 110 -5 37 -5 431 0 465 2 14 7 61 11 105 6 72 23 186 40 285 29 157 112
434 174 579 17 40 31 75 31 77 0 2 -683 3 -1517 2 l-1518 -3 0 -733 c0 -402 2
-733 5 -733 3 -1 322 -2 710 -4 388 -1 707 -3 710 -4 3 0 5 -159 5 -353 l0
-352 -55 -34 c-168 -103 -429 -205 -610 -239 -14 -2 -43 -8 -65 -13 -22 -5
-62 -12 -90 -15 -27 -4 -57 -8 -65 -10 -79 -21 -500 -24 -605 -4 -24 4 -63 10
-88 13 -191 23 -483 129 -685 249 -157 92 -258 172 -396 312 -182 185 -323
406 -412 645 -14 36 -28 72 -31 80 -3 8 -7 20 -9 25 -57 214 -61 237 -82 416
-13 104 -6 345 12 449 45 257 130 491 248 683 26 43 48 80 48 83 0 16 174 226
254 307 303 302 653 483 1057 545 175 28 497 21 714 -13 17 -3 41 -7 55 -9 72
-11 287 -70 370 -102 257 -97 511 -255 785 -488 17 -14 33 -26 36 -26 4 0 42
43 85 96 44 53 84 102 89 108 6 6 31 36 56 66 137 166 342 415 396 480 33 41
131 160 216 263 l156 188 -42 37 c-23 21 -67 58 -97 82 -30 25 -57 47 -60 50
-3 3 -54 42 -115 87 -381 281 -761 466 -1185 575 -157 40 -360 79 -482 93 -26
3 -62 7 -80 10 -33 5 -89 9 -268 21 -91 5 -438 12 -443 8z"/>
</g>
</svg>
